<svg width="1016" height="319" viewBox="0 0 1016 319" fill="none" xmlns="http://www.w3.org/2000/svg">
<path fill-rule="evenodd" clip-rule="evenodd" d="M309.761 142.846C295.796 131.222 285.31 124.204 263.56 113.126C251.455 108.557 245.329 108.758 236.031 116.137L200.048 148.458C191.862 154.705 187.212 157.272 177.95 156.507C170.6 155.449 165.294 152.225 153.643 141.875C148.226 135.358 143.736 129.633 139.518 124.257L139.518 124.257C129.613 111.628 121.214 100.921 105.853 86.3848C95.534 78.3591 90.3499 75.8373 82.5172 75.0587C64.763 73.6102 49.386 76.464 18.1546 86.3447C45.0674 36.2893 99.3521 2.96267 160.727 4.99265C239.555 7.5999 302.594 67.6225 309.761 142.846Z" fill="url(#paint0_linear_19_193)"/>
<path fill-rule="evenodd" clip-rule="evenodd" d="M10.511 107.318C4.35912 122.881 0.718976 139.708 0.095571 157.334C-2.88233 241.53 64.1037 312.08 149.713 314.911C235.113 317.736 306.785 252.106 310.091 168.206C277.586 150.901 263.332 144.008 255.94 143.71C242.464 151.443 236.556 157.73 227.203 170.342L238.815 173.433C245.739 176.609 248.083 179.432 251.511 184.974L260.292 189.706L266.355 201.223C255.313 197.813 249.131 197.039 238.127 198.389L225.177 201.581L210.3 210.354C193.239 218.054 183.396 220.363 165.337 221.24C149.67 219.373 141.675 216.154 129.213 205.422L92.0351 224.148C83.2251 226.776 78.3647 227.336 69.7582 227.686L55.3158 226.236C45.9522 223.875 41.8219 221.139 35.2628 215.24L20.3754 193.212L48.1517 194.075C73.379 190.72 88.036 187.002 114.939 177.68C106.289 155.504 100.596 143.238 88.4288 121.76C83.1592 114.452 78.9175 111.406 67.9238 108.793C46.431 107.026 32.6396 106.836 10.511 107.318Z" fill="url(#paint1_linear_19_193)"/>
<path d="M343.1 206V100.4H357.4V145.5H403.6V100.4H417.9V206H403.6V156.5H357.4V206H343.1ZM471.183 100.4H485.703L523.543 206H509.023L501.543 183.34H454.903L447.863 206H433.343L471.183 100.4ZM458.423 173H498.243L478.443 110.96L458.423 173ZM539.038 206V100.4H548.938L600.638 181.36V100.4H611.638V206H601.738L550.038 126.36V206H539.038ZM635.932 206V100.4H666.072C695.992 100.4 716.232 121.52 716.232 153.2C716.232 184.88 695.992 206 666.072 206H635.932ZM650.232 195H663.652C686.092 195 701.272 178.28 701.272 153.2C701.272 128.12 686.092 111.4 663.652 111.4H650.232V195ZM744.435 153.2C744.435 178.94 756.315 196.1 774.575 196.1C792.615 196.1 804.715 178.94 804.715 153.2C804.715 127.46 792.615 110.3 774.575 110.3C756.315 110.3 744.435 127.46 744.435 153.2ZM729.475 153.2C729.475 120.86 747.515 99.3 774.575 99.3C801.635 99.3 819.675 120.86 819.675 153.2C819.675 185.54 801.635 207.1 774.575 207.1C747.515 207.1 729.475 185.54 729.475 153.2ZM838.315 206V100.4H848.215L899.915 181.36V100.4H910.915V206H901.015L849.315 126.36V206H838.315ZM977.009 148.8H1006.71V202.92L1000.11 203.8C993.949 205.56 986.029 207.1 978.549 207.1C949.069 207.1 929.709 185.1 929.709 152.1C929.709 120.42 949.509 99.3 979.649 99.3C987.129 99.3 993.949 100.62 1001.21 102.6V117.34C995.049 113.38 989.109 111.4 981.849 111.4C959.409 111.4 944.669 127.68 944.669 152.1C944.669 177.84 958.089 195 978.549 195C983.389 195 988.229 194.34 992.409 193.02V159.8H977.009V148.8Z" fill="#06326E"/>
<path d="M349.984 47V18.328H341.28V16.28H361.44V18.328H352.736V47H349.984ZM377.79 47V16.28H380.542V29.976H395.518V16.28H398.27V47H395.518V32.024H380.542V47H377.79ZM416.81 47V16.28H433.13V18.328H419.562V29.976H430.57V32.024H419.562V44.952H433.13V47H416.81Z" fill="#6D6E71"/>
<path d="M342.56 296.08V292.944C345.952 295.184 348.512 296.144 351.2 296.144C355.872 296.144 359.008 293.84 359.008 290.32C359.008 287.568 356.896 285.328 351.584 283.408C344.288 280.784 342.56 277.776 342.56 274.832C342.56 269.776 346.144 266.96 352.8 266.96C355.232 266.96 357.536 267.664 359.84 268.88V271.696C357.408 270.032 354.912 269.136 352.8 269.136C347.872 269.136 345.312 271.184 345.312 274.832C345.312 277.264 347.616 278.992 352.288 280.656C359.712 283.408 361.76 286.096 361.76 290.32C361.76 295.12 357.536 298.32 351.2 298.32C348.128 298.32 345.248 297.488 342.56 296.08ZM380.008 282.64C380.008 290.832 383.784 296.208 389.544 296.208C395.24 296.208 399.08 290.832 399.08 282.64C399.08 274.512 395.24 269.072 389.544 269.072C383.784 269.072 380.008 274.512 380.008 282.64ZM377.128 282.64C377.128 273.232 382.056 266.96 389.544 266.96C396.968 266.96 401.96 273.232 401.96 282.64C401.96 292.048 396.968 298.32 389.544 298.32C382.056 298.32 377.128 292.048 377.128 282.64ZM418.935 298V267.28H434.615V269.328H421.687V281.616H432.055V283.664H421.687V298H418.935ZM457.731 298V269.328H449.027V267.28H469.187V269.328H460.483V298H457.731ZM491.874 298L482.978 267.28H485.986L493.218 295.76L500.322 267.28H503.394L510.498 295.76L517.73 267.28H520.738L511.842 298H509.026L501.858 270.736L494.69 298H491.874ZM531.623 298L542.759 267.28H545.447L556.583 298H553.511L551.143 290.96H536.999L534.695 298H531.623ZM537.639 288.912H550.503L544.103 269.52L537.639 288.912ZM572.577 298V267.28H581.217C587.489 267.28 591.777 270.48 591.777 275.28C591.777 278.672 589.089 281.552 585.313 282.768C588.705 283.92 590.625 286.416 591.073 289.68L592.097 298H589.345L588.321 289.68C587.809 285.776 584.609 283.664 580.321 283.664H575.329V298H572.577ZM575.329 281.616H581.537C585.953 281.616 588.897 279.12 588.897 275.28C588.897 271.76 585.889 269.328 581.537 269.328H575.329V281.616ZM609.035 298V267.28H625.355V269.328H611.787V280.976H622.795V283.024H611.787V295.952H625.355V298H609.035ZM665.012 298V267.28H680.692V269.328H667.764V281.616H678.132V283.664H667.764V298H665.012ZM698.625 282.64C698.625 290.832 702.401 296.208 708.161 296.208C713.857 296.208 717.697 290.832 717.697 282.64C717.697 274.512 713.857 269.072 708.161 269.072C702.401 269.072 698.625 274.512 698.625 282.64ZM695.745 282.64C695.745 273.232 700.673 266.96 708.161 266.96C715.585 266.96 720.577 273.232 720.577 282.64C720.577 292.048 715.585 298.32 708.161 298.32C700.673 298.32 695.745 292.048 695.745 282.64ZM736.913 267.28H739.665V288.72C739.665 293.2 742.481 296.144 746.833 296.144C751.121 296.144 754.001 293.2 754.001 288.72V267.28H756.753V288.72C756.753 294.48 752.785 298.32 746.833 298.32C740.881 298.32 736.913 294.48 736.913 288.72V267.28ZM774.697 298V267.28H776.937L793.129 293.456V267.28H795.177V298H792.937L776.745 271.888V298H774.697ZM813.718 298V267.28H821.398C830.038 267.28 835.798 273.424 835.798 282.64C835.798 291.856 830.038 298 821.398 298H813.718ZM816.47 295.952H821.718C828.438 295.952 832.918 290.64 832.918 282.64C832.918 274.704 828.438 269.328 821.718 269.328H816.47V295.952ZM850.177 298L861.313 267.28H864.001L875.138 298H872.066L869.698 290.96H855.553L853.249 298H850.177ZM856.193 288.912H869.057L862.657 269.52L856.193 288.912ZM894.596 298V269.328H885.892V267.28H906.052V269.328H897.348V298H894.596ZM922.403 298V267.28H925.155V298H922.403ZM945.015 282.64C945.015 290.832 948.791 296.208 954.551 296.208C960.247 296.208 964.087 290.832 964.087 282.64C964.087 274.512 960.247 269.072 954.551 269.072C948.791 269.072 945.015 274.512 945.015 282.64ZM942.135 282.64C942.135 273.232 947.063 266.96 954.551 266.96C961.975 266.96 966.967 273.232 966.967 282.64C966.967 292.048 961.975 298.32 954.551 298.32C947.063 298.32 942.135 292.048 942.135 282.64ZM983.942 298V267.28H986.182L1002.37 293.456V267.28H1004.42V298H1002.18L985.99 271.888V298H983.942Z" fill="#6D6E71"/>
<defs>
<linearGradient id="paint0_linear_19_193" x1="183.5" y1="89" x2="145" y2="241.5" gradientUnits="userSpaceOnUse">
<stop stop-color="#0A5E9C"/>
<stop offset="1" stop-color="#06326E"/>
</linearGradient>
<linearGradient id="paint1_linear_19_193" x1="172" y1="211" x2="155" y2="274.5" gradientUnits="userSpaceOnUse">
<stop stop-color="#084E8A"/>
<stop offset="1" stop-color="#06326E"/>
</linearGradient>
</defs>
</svg>
